<svg xmlns="http://www.w3.org/2000/svg" viewBox="0 0 32 32">
  <defs>
    <linearGradient id="g" x1="0" y1="0" x2="1" y2="1">
      <stop offset="0%" stop-color="#ef4444"/>
      <stop offset="100%" stop-color="#f43f5e"/>
    </linearGradient>
  </defs>
  <rect width="32" height="32" rx="8" fill="#0a0a0b"/>
  <path fill="url(#g)" d="M9 6c1.5-2 4-2.5 6.5-2 2.5.5 4.5 2 6.5 4.5 1.5 2 2 4.5 1.5 7-.5 2.5-2 5-4 6.5-1 .8-1 2 0 2.5l.5.5c1 1 .5 2.5-1 3H10c-1.5 0-2.5-1-2.5-2.5v-1.5c0-1.5-.5-3-1.5-4-1-1-1.5-2.5-1.5-4 0-2.5 1.5-5 3-7C8.5 7.5 9 6 9 6Z"/>
</svg>
